<?xml version="1.0" encoding="utf-8"?>
<!-- Generator: Adobe Illustrator 19.2.1, SVG Export Plug-In . SVG Version: 6.00 Build 0)  -->
<svg version="1.1" id="Capa_1" xmlns="http://www.w3.org/2000/svg" xmlns:xlink="http://www.w3.org/1999/xlink" x="0px" y="0px"
	 viewBox="0 0 963 663" style="enable-background:new 0 0 463 463;" xml:space="preserve">
<style type="text/css">
	.st0{opacity:0.6;fill:#fb0d58;}
	.st1{opacity:0.88;fill:#25B9DC;}
	.st2{font-family: Century Gothic;}
	.st3{font-size:60.1709px;}
	.st4{opacity:0.83;fill:#25B8DC;}
	.st5{opacity:0.8;}
	.st6{opacity:0.86;fill:#C23B69;}
	.st7{font-size:60px;}
	.st8{opacity:0.88;fill:#25B9DC;}
	.st9{font-size:60.171px;}
	.st10{fill:#FFFFFF;}
</style>
<path class="st0" d="M307.9,24c-28.5,0-55.4,11.8-76.4,33.5c0,0,0,0,0,0c-21-21.6-47.9-33.5-76.4-33.5C91.9,24,40.6,82.7,40.6,154.9
	c0,45.6,21.7,100.1,61,153.2c36.2,48.9,82.6,90.5,127.4,114.3c0.9,0.4,1.7,0.6,2.6,0.6s1.8-0.2,2.6-0.6
	c44.8-23.7,91.1-65.4,127.4-114.3c39.3-53.2,61-107.6,61-153.2C422.4,82.7,371.1,24,307.9,24z M155.1,38.3
	c27.2,0,52.8,11.7,72.1,32.9c2.4,2.6,6.3,2.6,8.7,0c19.3-21.2,44.8-32.9,72.1-32.9c56.3,0,102.1,50.5,102.1,112.6
	c0,13.6-2.3,28.1-6.7,43.3c-0.9,3-3.6,5.1-6.7,5.1h-72.8c-2.9,0-5.4,2.2-6.1,5.3l-7.3,36.4l-20.2-94.6c-0.7-3.1-3.2-5.3-6-5.3
	c0,0,0,0-0.1,0c-2.8,0-5.3,2.1-6,5.2l-10.8,47.5c-0.7,3.2-3.5,5.5-6.8,5.5h-68.8c-2.9,0-5.4,2.2-6.1,5.3l-7.3,36.4l-20.2-94.6
	c-0.7-3.1-3.2-5.3-6-5.3c0,0,0,0-0.1,0c-2.8,0-5.3,2.1-6,5.2l-10.8,47.5c-0.7,3.2-3.5,5.5-6.8,5.5H66.4c-3.1,0-5.8-2.1-6.7-5.1
	C55.3,179,53,164.4,53,150.9C53,88.7,98.8,38.3,155.1,38.3z M352,296.2c-33.8,47-78.7,88.7-120.5,112.1
	c-41.8-23.5-86.6-65.2-120.5-112.1c-17.4-24.2-31.2-48.5-40.9-71.9c-2-4.7,1.4-9.9,6.4-9.9h62.6c2.8,0,5.3-2.3,6-5.5l7-32.9
	l20.6,102.6c0.7,3.2,3.2,5.6,6,5.6l0,0c2.9,0,5.4-2.4,6-5.7l11-58.3c0.6-3.4,3.5-5.8,6.8-5.8H271c2.8,0,5.3-2.3,6-5.5l7-32.9
	l20.6,102.6c0.7,3.2,3.2,5.6,6,5.6l0,0c2.9,0,5.4-2.4,6-5.7l11-58.3c0.6-3.4,3.5-5.8,6.8-5.8h52c5,0,8.4,5.2,6.4,9.9
	C383.2,247.7,369.4,272,352,296.2z"/>
<rect x="-91" y="150" style="fill:none;" width="46" height="79"/>
<text transform="matrix(1.1646 0 0 1 294.3037 196.6318)" class="st1 st2 st3">Natal</text>
<path class="st4" d="M219.3,142.5c5-0.3,10.1,0.5,14.7,2.3c6.2,2.4,11.7,6.6,15.6,11.9c3.8,5.1,6.1,11.3,6.5,17.7
	c0.5,6.3-0.9,12.8-3.9,18.4c-2.6,4.9-6.4,9.1-11,12.2c-4.5,3.1-9.8,5.1-15.3,5.8c-7,0.9-14.4-0.3-20.7-3.5
	c-6.3-3.2-11.6-8.3-14.9-14.5c-2.8-5.2-4.2-11.1-4-17c0.2-8.4,3.7-16.6,9.6-22.6c4.8-5,11-8.5,17.8-9.9
	C215.6,142.9,217.4,142.6,219.3,142.5z"/>
<text transform="matrix(1.048 0 0 1 201.6066 198.1154)" class="st5"><tspan x="0" y="0" class="st6 st2 st7">+</tspan></text>
<text transform="matrix(1.094 0 0 1 2.1865 196.6319)" class="st8 st2 st9">Neo</text>
<path class="st10" d="M216.1,160c0-1,0.9-1.8,1.9-1.8c2.6,0,5.2,0,7.8,0c0.8,0,1.6,0.5,1.9,1.2c0.1,0.3,0.1,0.7,0.1,1
	c0,3.4,0,6.7,0,10.1c3.5,0,7,0,10.5,0c0.8,0,1.5,0.5,1.8,1.2c0.2,0.5,0.1,1,0.1,1.4c0,2.3,0,4.6,0,7c0,0.8-0.4,1.5-1.2,1.8
	c-0.5,0.2-1,0.2-1.5,0.2c-3.3,0-6.5,0-9.8,0c0,3.5,0,7,0,10.5c0,1-0.9,1.8-1.9,1.8c-2.6,0-5.2,0-7.8,0c-0.8,0-1.6-0.5-1.9-1.2
	c-0.2-0.4-0.1-0.8-0.1-1.2c0-3.3,0-6.6,0-9.9c-3.5,0-7,0-10.4,0c-1,0-1.9-0.8-1.9-1.9c0-2.6,0-5.3,0-7.9c0-1,0.9-1.9,1.9-1.9
	c3.5,0,7,0,10.4,0C216.2,167,216.1,163.5,216.1,160z"/>
</svg>
