<?xml version="1.0" encoding="UTF-8" standalone="no"?>
<!-- Generator: Adobe Illustrator 19.2.1, SVG Export Plug-In . SVG Version: 6.00 Build 0)  -->

<svg
   xmlns:dc="http://purl.org/dc/elements/1.1/"
   xmlns:cc="http://creativecommons.org/ns#"
   xmlns:rdf="http://www.w3.org/1999/02/22-rdf-syntax-ns#"
   xmlns:svg="http://www.w3.org/2000/svg"
   xmlns="http://www.w3.org/2000/svg"
   xmlns:sodipodi="http://sodipodi.sourceforge.net/DTD/sodipodi-0.dtd"
   xmlns:inkscape="http://www.inkscape.org/namespaces/inkscape"
   version="1.1"
   id="Capa_1"
   x="0px"
   y="0px"
   viewBox="0 0 1063 663"
   style="enable-background:new 0 0 463 463;"
   xml:space="preserve"
   inkscape:version="0.91 r13725"
   sodipodi:docname="neonatal.svg"><metadata
     id="metadata3355"><rdf:RDF><cc:Work
         rdf:about=""><dc:format>image/svg+xml</dc:format><dc:type
           rdf:resource="http://purl.org/dc/dcmitype/StillImage" /></cc:Work></rdf:RDF></metadata><defs
     id="defs3353" /><sodipodi:namedview
     pagecolor="#ffffff"
     bordercolor="#666666"
     borderopacity="1"
     objecttolerance="10"
     gridtolerance="10"
     guidetolerance="10"
     inkscape:pageopacity="0"
     inkscape:pageshadow="2"
     inkscape:window-width="1366"
     inkscape:window-height="705"
     id="namedview3351"
     showgrid="false"
     inkscape:zoom="0.80844646"
     inkscape:cx="531.5"
     inkscape:cy="331.5"
     inkscape:window-x="-8"
     inkscape:window-y="-8"
     inkscape:window-maximized="1"
     inkscape:current-layer="Capa_1" /><style
     type="text/css"
     id="style3337">
	.st0{opacity:0.6;fill:#fb0d58;}
	.st1{opacity:0.88;fill:#25B9DC;}
	.st2{font-family: Century Gothic;}
	.st3{font-size:60.1709px;}
	.st4{opacity:0.83;fill:#25B8DC;}
	.st6{opacity:0.86;fill:#C23B69;}
	.st7{font-size:60px;}
	.st8{opacity:0.88;fill:#25B9DC;}
	.st9{font-size:60.171px;}
	.st10{fill:#FFFFFF;}
</style><path
     class="st0"
     d="m 323.12764,85.847015 c -24.71632,0 -48.04506,9.97094 -66.25709,28.307335 0,0 0,0 0,0 -18.21203,-18.251895 -41.54076,-28.307335 -66.25709,-28.307335 -54.80953,0 -99.298908,49.601205 -99.298908,110.609835 0,38.53177 18.819098,84.584 52.901608,129.45323 31.39406,41.32025 71.63397,76.47204 110.48629,96.58292 0.78052,0.338 1.47431,0.507 2.25483,0.507 0.78051,0 1.56103,-0.169 2.25482,-0.507 38.85232,-20.02638 79.00551,-55.26267 110.4863,-96.58292 C 403.78091,280.95635 422.6,234.98862 422.6,196.45685 422.42655,135.44822 377.93717,85.847015 323.12764,85.847015 Z M 190.61346,97.930443 c 23.58891,0 45.79024,9.886437 62.52796,27.800337 2.08138,2.19698 5.46361,2.19698 7.54499,0 16.73772,-17.9139 38.85232,-27.800337 62.52796,-27.800337 48.82557,0 88.54514,42.672247 88.54514,95.146427 0,11.49194 -1.99465,23.74436 -5.81051,36.58829 -0.78051,2.53498 -3.12206,4.30947 -5.8105,4.30947 l -63.13503,0 c -2.51499,0 -4.68309,1.85899 -5.29016,4.47847 l -6.33085,30.75782 -17.51823,-79.93652 c -0.60707,-2.61949 -2.77517,-4.47848 -5.20344,-4.47848 0,0 0,0 -0.0867,0 -2.42827,0 -4.59637,1.77449 -5.20344,4.39398 l -9.36618,40.13726 c -0.60707,2.70398 -3.03534,4.64747 -5.89723,4.64747 l -59.66607,0 c -2.515,0 -4.68309,1.85899 -5.29016,4.47847 l -6.33085,30.75782 -17.51824,-79.93652 c -0.60706,-2.61949 -2.77516,-4.47848 -5.20343,-4.47848 0,0 0,0 -0.0867,0 -2.42827,0 -4.59636,1.77449 -5.20343,4.39398 l -9.36619,40.13726 c -0.60706,2.70398 -3.03534,4.64747 -5.89723,4.64747 l -53.85556,0 c -2.68844,0 -5.02999,-1.77449 -5.81051,-4.30947 -3.81585,-12.84393 -5.8105,-25.18085 -5.8105,-36.58829 0,-52.55868 39.71956,-95.146427 88.54514,-95.146427 z M 361.3729,315.85464 c -29.31269,39.71476 -68.25174,74.95105 -104.50235,94.72393 -36.2506,-19.85738 -75.10293,-55.09367 -104.50234,-94.72393 -15.08997,-20.44888 -27.05787,-40.98225 -35.4701,-60.75514 -1.73447,-3.97147 1.21414,-8.36545 5.55034,-8.36545 l 54.28918,0 c 2.42827,0 4.59637,-1.94348 5.20344,-4.64747 l 6.07067,-27.80033 17.86514,86.69648 c 0.60706,2.70398 2.77516,4.73197 5.20343,4.73197 l 0,0 c 2.515,0 4.68309,-2.02799 5.20344,-4.81647 l 9.53963,-49.26321 c 0.52035,-2.87298 3.03534,-4.90097 5.89723,-4.90097 l 59.4059,0 c 2.42827,0 4.59637,-1.94348 5.20343,-4.64747 l 6.07068,-27.80033 17.86513,86.69648 c 0.60707,2.70398 2.77517,4.73197 5.20344,4.73197 l 0,0 c 2.51499,0 4.68309,-2.02799 5.20343,-4.81647 l 9.53964,-49.26321 c 0.52034,-2.87298 3.03534,-4.90097 5.89723,-4.90097 l 45.09644,0 c 4.3362,0 7.28481,4.39398 5.55034,8.36545 -8.3255,19.77289 -20.29341,40.30626 -35.38337,60.75514 z"
     id="path3339"
     inkscape:connector-curvature="0"
     style="opacity:0.6;fill:#fb0d58" /><rect
     x="-91"
     y="150"
     style="fill:none;"
     width="46"
     height="79"
     id="rect3341" /><text
     transform="scale(1.0619041,0.94170462)"
     class="st1 st2 st3"
     id="text3343"
     x="296.6532"
     y="246.69374"
     style="font-size:53.38763046px;font-family:'Century Gothic';opacity:0.87999998;fill:#25b9dc">Natal</text>
<path
     class="st4"
     d="m 248.62332,184.28777 c 3.57725,-0.21306 7.22605,0.35509 10.51712,1.63344 4.43579,1.70446 8.37078,4.68726 11.16103,8.45127 2.71872,3.62199 4.36425,8.02518 4.65043,12.5704 0.35772,4.47421 -0.64391,9.09045 -2.79026,13.06752 -1.86017,3.47994 -4.57888,6.46275 -7.86996,8.66435 -3.21952,2.20159 -7.01141,3.62197 -10.94639,4.1191 -5.00815,0.63917 -10.30249,-0.21306 -14.80983,-2.48567 -4.50733,-2.27261 -8.29922,-5.89459 -10.66021,-10.29778 -2.00325,-3.69299 -3.00489,-7.88312 -2.8618,-12.07325 0.1431,-5.96561 2.64717,-11.78919 6.86833,-16.05033 3.43416,-3.55096 7.86995,-6.03663 12.73502,-7.0309 1.35935,-0.28408 2.64717,-0.49713 4.00652,-0.56815 z"
     id="path3345"
     inkscape:connector-curvature="0"
     style="opacity:0.92999998;fill:#25b8dc" /><text
     transform="scale(1.0673606,0.9368905)"
     class="st8 st2 st9"
     id="text3347"
     x="56.065025"
     y="247.94324"
     style="font-size:54.98718262px;font-family:'Century Gothic';opacity:0.87999998;fill:#25b9dc">Neo</text>
<path
     class="st10"
     d="m 245.96045,197.00348 c 0,-0.72665 0.68665,-1.30796 1.4496,-1.30796 1.98365,0 3.96729,0 5.95094,0 0.61035,0 1.2207,0.36333 1.44959,0.87198 0.0763,0.21799 0.0763,0.50865 0.0763,0.72664 0,2.47058 0,4.8685 0,7.33909 2.67029,0 5.34059,0 8.01088,0 0.61035,0 1.14442,0.36332 1.3733,0.87197 0.15258,0.36333 0.0763,0.72665 0.0763,1.0173 0,1.67128 0,3.34256 0,5.08651 0,0.58131 -0.30516,1.08996 -0.91553,1.30795 -0.38147,0.14533 -0.76293,0.14533 -1.1444,0.14533 -2.51771,0 -4.95912,0 -7.47683,0 0,2.54325 0,5.0865 0,7.62976 0,0.72664 -0.68665,1.30795 -1.44958,1.30795 -1.98365,0 -3.96729,0 -5.95094,0 -0.61037,0 -1.22071,-0.36333 -1.4496,-0.87198 -0.15258,-0.29065 -0.0763,-0.58131 -0.0763,-0.87196 0,-2.39792 0,-4.79584 0,-7.19377 -2.67029,0 -5.34059,0 -7.9346,0 -0.76293,0 -1.44958,-0.58132 -1.44958,-1.38062 0,-1.88927 0,-3.85121 0,-5.74048 0,-0.72664 0.68665,-1.38062 1.44958,-1.38062 2.6703,0 5.34059,0 7.9346,0 0.15258,-2.47059 0.0763,-5.01384 0.0763,-7.55709 z"
     id="path3349"
     inkscape:connector-curvature="0"
     style="fill:#ffffff" /></svg>